<svg xmlns="http://www.w3.org/2000/svg" xmlns:xlink="http://www.w3.org/1999/xlink" style="display:none"><defs><path id="a" d="M.368.66v54.295H53.77V.66H.368z"/></defs><symbol id="shape-alexflowers" viewBox="0 0 563 78"><g fill="none" fill-rule="evenodd"><g transform="translate(0 22.57)"><mask id="b" fill="#fff"><use xlink:href="#a"/></mask><path d="M48.455 27.81c0-11.905-9.275-21.72-21.365-21.72-11.77 0-21.15 9.705-21.15 21.72 0 12.003 9.38 21.715 21.15 21.715 12.09 0 21.365-9.712 21.365-21.715zM0 27.81C0 12.877 11.464.66 26.778.66c7.92 0 16.78 4.28 21.052 11.903V1.703h5.94V53.91h-5.94V43.05c-4.273 7.624-13.132 11.905-21.052 11.905C11.568 54.955 0 42.737 0 27.81z" fill="#1A1918" mask="url(#b)"/></g><path fill="#1A1918" d="M67.637 76.482h6.045V.256h-6.045M91.19 46.935h41.68c-1.145-10.965-8.962-18.38-20.524-18.38-10.942 0-19.488 7.833-21.156 18.38zm-5.836 3.754c0-15.45 11.464-27.46 26.992-27.46 15.216 0 26.674 10.86 26.674 26.525v2.604H90.982c.834 11.487 9.38 19.84 21.677 19.84 9.69 0 16.25-5.012 19.69-13.053l5.217 2.513c-4.696 10.02-12.715 15.867-24.804 15.867-16.883 0-27.41-11.592-27.41-26.838zm79.414-.829l-20.01-25.586h7.087l16.57 21.304 16.67-21.304h7.092L172.063 49.86l21.047 26.62h-7.297l-17.398-22.13-17.3 22.132h-7.295l20.948-26.623m53.88-25.585h8.957v-5.012c0-15.038 4.168-19.006 18.76-19.006h.52V5.79c-11.36 0-13.34 1.985-13.34 13.576v4.908h13.34V29.6h-13.34v46.882h-5.94V29.6h-8.957v-5.326m38.762 52.208h6.045V.256h-6.044m44.709 71.84c11.777 0 21.15-9.71 21.15-21.715 0-12.014-9.478-21.72-21.15-21.72-11.776 0-21.052 9.706-21.052 21.72 0 12.005 9.276 21.716 21.052 21.716zm0-48.866c15.007 0 27.09 12.114 27.09 27.15 0 14.93-12.083 27.147-27.09 27.147-15.737 0-26.992-12.114-26.992-27.146 0-15.036 11.985-27.15 26.992-27.15zm33.773 1.044h6.35L356 67.92l16.988-43.646h5.628l16.78 43.332 14.166-43.332h6.253l-18.03 52.208h-4.898l-17.19-43.75-17.09 43.75h-5.94l-16.774-52.208m92.122 22.661h41.687c-1.147-10.965-8.963-18.38-20.53-18.38-10.944 0-19.49 7.833-21.157 18.38zm-5.83 3.754c0-15.45 11.457-27.46 26.986-27.46 15.217 0 26.68 10.86 26.68 26.525v2.604h-48.044c.834 11.487 9.38 19.84 21.677 19.84 9.693 0 16.258-5.012 19.698-13.053l5.21 2.513c-4.688 10.02-12.713 15.867-24.802 15.867-16.877 0-27.403-11.592-27.403-26.838zm65.235-26.415h5.835v9.817c3.224-6.37 9.686-9.816 18.65-9.816h3.23v5.535h-3.23c-12.918 0-18.546 6.578-18.546 19.423v27.25h-5.94v-52.21m33.551 43.542l4.8-3.968c3.752 5.117 9.484 8.458 16.773 8.458 8.963 0 13.653-4.803 13.653-10.443 0-6.474-7.4-7.832-15.007-9.705-8.34-2.095-17.406-4.81-17.406-14.516 0-7.727 7.19-14.514 18.343-14.514 7.712 0 14.59 2.924 18.967 7.832l-4.48 3.655c-3.545-4.073-8.443-6.37-14.487-6.37-8.025 0-12.5 4.072-12.5 9.294 0 6.16 7.08 7.832 14.688 9.705 8.546 2.095 17.717 4.595 17.717 14.62 0 7.102-6.15 15.665-19.697 15.665-9.17 0-16.78-3.655-21.365-9.712"/></g></symbol><symbol id="shape-close" viewBox="0 0 595.28 841.89"><path class="left" d="M72.4 705.178l509.473-509.474c40.222-40.222-18.77-99.213-58.992-58.992L13.408 646.186c-40.22 40.222 18.77 99.213 58.992 58.992z"/><path class="right" d="M13.407 195.704L522.88 705.178c37.54 37.54 96.533-21.45 58.993-58.992L72.4 136.712c-40.223-40.22-99.214 18.77-58.993 58.992z"/></symbol><symbol id="shape-down-chevron" viewBox="-14 14 60 32"><path fill-rule="evenodd" d="M-14 15.56l1.415-1.414L15.708 42.44 44 14.145l1.415 1.415-29.708 29.71"/></symbol><symbol id="shape-hd" viewBox="0 0 12.3 9.3"><style>.st0{fill:#fff}</style><path class="st0" d="M1 9.3H0V0h1v4.1h2.8V0h1v9.3h-1V5H1v4.3zM10 9.3H7.7V0H10c.7 0 1.3.2 1.7.5s.6.8.6 1.5v5.3c0 .6-.2 1.1-.6 1.5-.4.3-1 .5-1.7.5zm1.3-2V2c0-.3-.1-.6-.3-.8s-.6-.3-1-.3H8.7v7.6H10c.4 0 .7-.1.9-.3.2-.3.4-.6.4-.9z"/></symbol><symbol id="shape-instagram" viewBox="0 0 169.063 169.063"><g fill="#FFF"><path d="M122.406 0H46.654C20.929 0 0 20.93 0 46.655v75.752c0 25.726 20.929 46.655 46.654 46.655h75.752c25.727 0 46.656-20.93 46.656-46.655V46.655C169.063 20.93 148.133 0 122.406 0zm31.657 122.407c0 17.455-14.201 31.655-31.656 31.655H46.654C29.2 154.063 15 139.862 15 122.407V46.655C15 29.201 29.2 15 46.654 15h75.752c17.455 0 31.656 14.201 31.656 31.655v75.752z"/><path d="M84.531 40.97c-24.021 0-43.563 19.542-43.563 43.563 0 24.02 19.542 43.561 43.563 43.561s43.563-19.541 43.563-43.561c0-24.021-19.542-43.563-43.563-43.563zm0 72.123c-15.749 0-28.563-12.812-28.563-28.561 0-15.75 12.813-28.563 28.563-28.563s28.563 12.813 28.563 28.563c0 15.749-12.814 28.561-28.563 28.561zM129.921 28.251c-2.89 0-5.729 1.17-7.77 3.22a11.053 11.053 0 0 0-3.23 7.78c0 2.891 1.18 5.73 3.23 7.78 2.04 2.04 4.88 3.22 7.77 3.22 2.9 0 5.73-1.18 7.78-3.22 2.05-2.05 3.22-4.89 3.22-7.78 0-2.9-1.17-5.74-3.22-7.78-2.04-2.05-4.88-3.22-7.78-3.22z"/></g></symbol><symbol id="shape-minus" viewBox="0 0 11 11"><path fill="#FFF" d="M0 5h11v1H0z"/></symbol><symbol id="shape-pause" viewBox="0 0 44 44"><g fill="#fff"><path d="M13.361 0c-1.465 0-2.658.897-2.658 2v40c0 1.103 1.193 2 2.658 2 1.466 0 2.658-.897 2.658-2V2c0-1.103-1.192-2-2.658-2zM30.639 0c-1.466 0-2.658.897-2.658 2v40c0 1.103 1.192 2 2.658 2 1.465 0 2.658-.897 2.658-2V2c0-1.103-1.193-2-2.658-2z"/></g></symbol><symbol id="shape-play" viewBox="0 0 8.057 9.386"><path fill="#FDFDFD" d="M0 9.386V0l8.113 4.693L0 9.386zm1-7.652v5.917l5.115-2.958L1 1.734z"/></symbol><symbol id="shape-plus" viewBox="0 0 11 11"><path fill="#FFF" d="M5 0h1v11H5z"/><path fill="#FFF" d="M0 5h11v1H0z"/></symbol><symbol id="shape-quote" viewBox="0 0 105 73"><path d="M47.085 49.93c0 15.183-13.588 23.07-23.07 23.07C14.535 73 0 63.848 0 46.77 0 20.7 20.855 1.898 35.708 0c1.105 1.897 2.528 4.74 2.528 4.74C31.6 7.427 13.27 19.91 12.324 31.285c5.056-3.16 7.233-4.74 13.272-4.74 12.64 0 21.49 11.693 21.49 23.386zm57 0c0 15.183-13.588 23.07-23.07 23.07C71.535 73 57 63.848 57 46.77 57 20.7 77.855 1.898 92.708 0c1.105 1.897 2.528 4.74 2.528 4.74C88.6 7.427 70.27 19.91 69.324 31.285c5.056-3.16 7.233-4.74 13.272-4.74 12.64 0 21.49 11.693 21.49 23.386z" fill="#FFF" fill-rule="evenodd"/></symbol><symbol id="shape-twitter" viewBox="0 0 512.002 512.002"><path d="M512.002 97.211c-18.84 8.354-39.082 14.001-60.33 16.54 21.686-13 38.342-33.585 46.186-58.115a210.29 210.29 0 0 1-66.705 25.49c-19.16-20.415-46.461-33.17-76.674-33.17-58.011 0-105.042 47.029-105.042 105.039 0 8.233.929 16.25 2.72 23.939-87.3-4.382-164.701-46.2-216.509-109.753-9.042 15.514-14.223 33.558-14.223 52.809 0 36.444 18.544 68.596 46.73 87.433a104.614 104.614 0 0 1-47.577-13.139c-.01.438-.01.878-.01 1.321 0 50.894 36.209 93.348 84.261 103a105.245 105.245 0 0 1-27.674 3.687c-6.769 0-13.349-.66-19.764-1.888 13.368 41.73 52.16 72.104 98.126 72.949-35.95 28.176-81.243 44.967-130.458 44.967-8.479 0-16.84-.496-25.058-1.471 46.486 29.807 101.701 47.197 161.021 47.197 193.211 0 298.868-160.062 298.868-298.872 0-4.554-.104-9.084-.305-13.59 20.526-14.809 38.335-33.309 52.417-54.373z" fill="#FFF"/></symbol><symbol id="shape-vimeo" viewBox="0 0 299.999 299.999"><path d="M298.723 68.78c2.238-12.561 2.188-25.477-5.57-35.245-10.824-13.696-33.863-14.2-49.646-11.783-12.84 1.963-56.269 21.124-71.047 66.996 26.182-1.99 39.904 1.887 37.385 30.713-1.055 12.061-7.148 25.274-13.947 37.941-7.857 14.603-22.583 43.277-41.894 22.608-17.394-18.602-16.088-54.179-20.065-77.871-2.215-13.292-4.557-29.857-8.912-43.529-3.753-11.757-12.359-25.932-22.884-29.004-11.304-3.322-25.28 1.863-33.487 6.698C42.522 51.661 22.605 73.513 0 91.54c3.68 7.884 5.687 12.992 12.283 13.949 15.561 2.292 30.391-14.502 40.736 2.971 6.294 10.675 8.26 22.381 12.287 33.891 5.387 15.328 9.541 32.02 13.947 49.646 7.452 29.857 16.618 74.47 42.424 85.398 13.166 5.591 32.957-1.889 42.977-7.831 27.14-16.061 48.289-39.348 66.391-63.04 41.389-56.071 64.225-119.591 67.678-137.744z" fill="#FFF" fill-rule="evenodd" clip-rule="evenodd"/></symbol><symbol id="shape-volume" viewBox="0 0 9 11"><path fill="#FDFDFD" d="M0 8h1v3H0zM4 4h1v7H4zM8 0h1v11H8z"/></symbol><symbol id="shape-youtube" viewBox="0 0 96.875 96.875"><path d="M95.201 25.538c-1.186-5.152-5.4-8.953-10.473-9.52-12.013-1.341-24.172-1.348-36.275-1.341-12.105-.007-24.266 0-36.279 1.341-5.07.567-9.281 4.368-10.467 9.52C.019 32.875 0 40.884 0 48.438 0 55.992 0 64 1.688 71.336c1.184 5.151 5.396 8.952 10.469 9.52 12.012 1.342 24.172 1.349 36.277 1.342 12.107.007 24.264 0 36.275-1.342 5.07-.567 9.285-4.368 10.471-9.52 1.689-7.337 1.695-15.345 1.695-22.898 0-7.554.014-15.563-1.674-22.9zM35.936 63.474V31.437a497491.15 497491.15 0 0 0 30.798 16.068c-10.3 5.342-20.504 10.631-30.798 15.969z" fill="#FFF"/></symbol></svg>