<svg xmlns="http://www.w3.org/2000/svg" xmlns:xlink="http://www.w3.org/1999/xlink" style="display:none"><defs><path id="a" d="M.368.66v54.295H53.77V.66H.368z"/></defs><symbol id="shape-alexflowers" viewBox="0 0 563 78"><g fill="none" fill-rule="evenodd"><g transform="translate(0 22.57)"><mask id="b" fill="#fff"><use xlink:href="#a"/></mask><path d="M48.455 27.81c0-11.905-9.275-21.72-21.365-21.72-11.77 0-21.15 9.705-21.15 21.72 0 12.003 9.38 21.715 21.15 21.715 12.09 0 21.365-9.712 21.365-21.715zM0 27.81C0 12.877 11.464.66 26.778.66c7.92 0 16.78 4.28 21.052 11.903V1.703h5.94V53.91h-5.94V43.05c-4.273 7.624-13.132 11.905-21.052 11.905C11.568 54.955 0 42.737 0 27.81z" fill="#1A1918" mask="url(#b)"/></g><path fill="#1A1918" d="M67.637 76.482h6.045V.256h-6.045M91.19 46.935h41.68c-1.145-10.965-8.962-18.38-20.524-18.38-10.942 0-19.488 7.833-21.156 18.38zm-5.836 3.754c0-15.45 11.464-27.46 26.992-27.46 15.216 0 26.674 10.86 26.674 26.525v2.604H90.982c.834 11.487 9.38 19.84 21.677 19.84 9.69 0 16.25-5.012 19.69-13.053l5.217 2.513c-4.696 10.02-12.715 15.867-24.804 15.867-16.883 0-27.41-11.592-27.41-26.838zm79.414-.829l-20.01-25.586h7.087l16.57 21.304 16.67-21.304h7.092L172.063 49.86l21.047 26.62h-7.297l-17.398-22.13-17.3 22.132h-7.295l20.948-26.623m53.88-25.585h8.957v-5.012c0-15.038 4.168-19.006 18.76-19.006h.52V5.79c-11.36 0-13.34 1.985-13.34 13.576v4.908h13.34V29.6h-13.34v46.882h-5.94V29.6h-8.957v-5.326m38.762 52.208h6.045V.256h-6.044m44.709 71.84c11.777 0 21.15-9.71 21.15-21.715 0-12.014-9.478-21.72-21.15-21.72-11.776 0-21.052 9.706-21.052 21.72 0 12.005 9.276 21.716 21.052 21.716zm0-48.866c15.007 0 27.09 12.114 27.09 27.15 0 14.93-12.083 27.147-27.09 27.147-15.737 0-26.992-12.114-26.992-27.146 0-15.036 11.985-27.15 26.992-27.15zm33.773 1.044h6.35L356 67.92l16.988-43.646h5.628l16.78 43.332 14.166-43.332h6.253l-18.03 52.208h-4.898l-17.19-43.75-17.09 43.75h-5.94l-16.774-52.208m92.122 22.661h41.687c-1.147-10.965-8.963-18.38-20.53-18.38-10.944 0-19.49 7.833-21.157 18.38zm-5.83 3.754c0-15.45 11.457-27.46 26.986-27.46 15.217 0 26.68 10.86 26.68 26.525v2.604h-48.044c.834 11.487 9.38 19.84 21.677 19.84 9.693 0 16.258-5.012 19.698-13.053l5.21 2.513c-4.688 10.02-12.713 15.867-24.802 15.867-16.877 0-27.403-11.592-27.403-26.838zm65.235-26.415h5.835v9.817c3.224-6.37 9.686-9.816 18.65-9.816h3.23v5.535h-3.23c-12.918 0-18.546 6.578-18.546 19.423v27.25h-5.94v-52.21m33.551 43.542l4.8-3.968c3.752 5.117 9.484 8.458 16.773 8.458 8.963 0 13.653-4.803 13.653-10.443 0-6.474-7.4-7.832-15.007-9.705-8.34-2.095-17.406-4.81-17.406-14.516 0-7.727 7.19-14.514 18.343-14.514 7.712 0 14.59 2.924 18.967 7.832l-4.48 3.655c-3.545-4.073-8.443-6.37-14.487-6.37-8.025 0-12.5 4.072-12.5 9.294 0 6.16 7.08 7.832 14.688 9.705 8.546 2.095 17.717 4.595 17.717 14.62 0 7.102-6.15 15.665-19.697 15.665-9.17 0-16.78-3.655-21.365-9.712"/></g></symbol><symbol id="shape-close" viewBox="0 0 595.28 841.89"><path class="left" d="M72.4 705.178l509.473-509.474c40.222-40.222-18.77-99.213-58.992-58.992L13.408 646.186c-40.22 40.222 18.77 99.213 58.992 58.992z"/><path class="right" d="M13.407 195.704L522.88 705.178c37.54 37.54 96.533-21.45 58.993-58.992L72.4 136.712c-40.223-40.22-99.214 18.77-58.993 58.992z"/></symbol></svg>