<?xml version="1.0" encoding="utf-8"?>
<!-- Generator: Adobe Illustrator 20.0.0, SVG Export Plug-In . SVG Version: 6.00 Build 0)  -->
<svg version="1.1" id="Layer_1" xmlns="http://www.w3.org/2000/svg" xmlns:xlink="http://www.w3.org/1999/xlink" x="0px" y="0px"
	 viewBox="0 0 12.3 9.3" style="enable-background:new 0 0 12.3 9.3;" xml:space="preserve">
<style type="text/css">
	.st0{fill:#FFFFFF;}
</style>
<g>
	<path class="st0" d="M1,9.3H0V0h1v4.1h2.8V0h1v9.3h-1V5H1V9.3z"/>
	<path class="st0" d="M10,9.3H7.7V0H10c0.7,0,1.3,0.2,1.7,0.5s0.6,0.8,0.6,1.5v5.3c0,0.6-0.2,1.1-0.6,1.5C11.3,9.1,10.7,9.3,10,9.3z
		 M11.3,7.3V2c0-0.3-0.1-0.6-0.3-0.8S10.4,0.9,10,0.9H8.7v7.6H10c0.4,0,0.7-0.1,0.9-0.3C11.1,7.9,11.3,7.6,11.3,7.3z"/>
</g>
</svg>
