<svg width="105" height="73" viewBox="0 0 105 73" xmlns="http://www.w3.org/2000/svg">
  <g fill="#FFF" fill-rule="evenodd">
    <path d="M47.085 49.93c0 15.183-13.588 23.07-23.07 23.07C14.535 73 0 63.848 0 46.77 0 20.7 20.855 1.898 35.708 0c1.105 1.897 2.528 4.74 2.528 4.74C31.6 7.427 13.27 19.91 12.324 31.285c5.056-3.16 7.233-4.74 13.272-4.74 12.64 0 21.49 11.693 21.49 23.386zM104.085 49.93c0 15.183-13.588 23.07-23.07 23.07C71.535 73 57 63.848 57 46.77 57 20.7 77.855 1.898 92.708 0c1.105 1.897 2.528 4.74 2.528 4.74C88.6 7.427 70.27 19.91 69.324 31.285c5.056-3.16 7.233-4.74 13.272-4.74 12.64 0 21.49 11.693 21.49 23.386z"/>
  </g>
</svg>
